
<svg xmlns="http://www.w3.org/2000/svg" width="402" height="118" viewBox="0 0 402 118" fill="none"><path d="M4.05114 76V42.5455H15.7472C18.0777 42.5455 19.9998 42.9484 21.5135 43.7543C23.0272 44.5492 24.1544 45.6219 24.8949 46.9723C25.6354 48.3118 26.0057 49.7983 26.0057 51.4318C26.0057 52.8693 25.7498 54.0563 25.2379 54.9929C24.737 55.9295 24.0727 56.67 23.245 57.2145C22.4283 57.759 21.5407 58.1619 20.5824 58.4233V58.75C21.6061 58.8153 22.6352 59.1747 23.6697 59.8281C24.7043 60.4815 25.5701 61.4181 26.267 62.6378C26.964 63.8575 27.3125 65.3494 27.3125 67.1136C27.3125 68.7907 26.9313 70.299 26.169 71.6385C25.4067 72.978 24.2034 74.0398 22.5589 74.8239C20.9145 75.608 18.7746 76 16.1392 76H4.05114ZM8.10227 72.4062H16.1392C18.7855 72.4062 20.6641 71.8944 21.7749 70.8707C22.8965 69.8362 23.4574 68.5838 23.4574 67.1136C23.4574 65.9811 23.1688 64.9356 22.5916 63.9773C22.0144 63.008 21.1922 62.2348 20.125 61.6577C19.0578 61.0696 17.7945 60.7756 16.3352 60.7756H8.10227V72.4062ZM8.10227 57.2472H15.6165C16.8362 57.2472 17.9361 57.0076 18.9162 56.5284C19.9072 56.0492 20.6913 55.3741 21.2685 54.5028C21.8565 53.6316 22.1506 52.608 22.1506 51.4318C22.1506 49.9616 21.6387 48.7147 20.6151 47.6911C19.5914 46.6565 17.9688 46.1392 15.7472 46.1392H8.10227V57.2472ZM35.3413 76H31.0941L43.3782 42.5455H47.56L59.8441 76H55.5969L45.5998 47.8381H45.3384L35.3413 76ZM36.9094 62.9318H54.0288V66.5256H36.9094V62.9318ZM91.5835 42.5455V76H87.663L69.4329 49.733H69.1062V76H65.055V42.5455H68.9755L87.271 68.8778H87.5977V42.5455H91.5835ZM126.61 53H122.559C122.32 51.8348 121.9 50.8111 121.301 49.929C120.713 49.0469 119.994 48.3063 119.145 47.7074C118.307 47.0975 117.375 46.6402 116.352 46.3352C115.328 46.0303 114.261 45.8778 113.15 45.8778C111.124 45.8778 109.289 46.3897 107.645 47.4134C106.012 48.437 104.71 49.9453 103.741 51.9382C102.783 53.9311 102.303 56.3759 102.303 59.2727C102.303 62.1695 102.783 64.6143 103.741 66.6072C104.71 68.6001 106.012 70.1084 107.645 71.1321C109.289 72.1558 111.124 72.6676 113.15 72.6676C114.261 72.6676 115.328 72.5152 116.352 72.2102C117.375 71.9053 118.307 71.4534 119.145 70.8544C119.994 70.2446 120.713 69.4986 121.301 68.6165C121.9 67.7235 122.32 66.6998 122.559 65.5455H126.61C126.305 67.2552 125.75 68.7853 124.944 70.1357C124.138 71.486 123.136 72.6349 121.938 73.5824C120.74 74.5189 119.396 75.2322 117.904 75.7223C116.423 76.2124 114.838 76.4574 113.15 76.4574C110.297 76.4574 107.759 75.7604 105.538 74.3665C103.316 72.9725 101.568 70.9905 100.294 68.4205C99.0201 65.8504 98.383 62.8011 98.383 59.2727C98.383 55.7443 99.0201 52.6951 100.294 50.125C101.568 47.5549 103.316 45.5729 105.538 44.179C107.759 42.785 110.297 42.0881 113.15 42.0881C114.838 42.0881 116.423 42.3331 117.904 42.8232C119.396 43.3132 120.74 44.032 121.938 44.9794C123.136 45.916 124.138 47.0594 124.944 48.4098C125.75 49.7493 126.305 51.2794 126.61 53ZM161.384 59.2727C161.384 62.8011 160.747 65.8504 159.473 68.4205C158.199 70.9905 156.451 72.9725 154.229 74.3665C152.007 75.7604 149.47 76.4574 146.617 76.4574C143.764 76.4574 141.226 75.7604 139.005 74.3665C136.783 72.9725 135.035 70.9905 133.761 68.4205C132.487 65.8504 131.85 62.8011 131.85 59.2727C131.85 55.7443 132.487 52.6951 133.761 50.125C135.035 47.5549 136.783 45.5729 139.005 44.179C141.226 42.785 143.764 42.0881 146.617 42.0881C149.47 42.0881 152.007 42.785 154.229 44.179C156.451 45.5729 158.199 47.5549 159.473 50.125C160.747 52.6951 161.384 55.7443 161.384 59.2727ZM157.463 59.2727C157.463 56.3759 156.979 53.9311 156.01 51.9382C155.051 49.9453 153.75 48.437 152.105 47.4134C150.472 46.3897 148.642 45.8778 146.617 45.8778C144.591 45.8778 142.756 46.3897 141.112 47.4134C139.478 48.437 138.177 49.9453 137.208 51.9382C136.249 53.9311 135.77 56.3759 135.77 59.2727C135.77 62.1695 136.249 64.6143 137.208 66.6072C138.177 68.6001 139.478 70.1084 141.112 71.1321C142.756 72.1558 144.591 72.6676 146.617 72.6676C148.642 72.6676 150.472 72.1558 152.105 71.1321C153.75 70.1084 155.051 68.6001 156.01 66.6072C156.979 64.6143 157.463 62.1695 157.463 59.2727Z" fill="#2D2B2C"></path><path d="M263.67 75.3329C262.529 75.3458 261.388 75.3584 260.107 75.2093C259.962 66.513 259.965 57.9783 259.939 49.444C259.937 48.8243 259.946 48.2577 259.939 47.5967L259.946 46.9356C259.946 46.9356 259.145 46.9505 258.932 46.9501C252.644 46.9432 246.355 46.9389 240.067 46.9591C239.073 46.9591 239.073 46.9591 239.073 47.4469C239.04 56.2341 239.049 64.8696 239.007 73.5048C239.004 74.1202 239.007 74.7003 239.007 75.3485C237.979 75.359 236.215 75.3614 235.075 75.3485C235.053 74.7003 235.077 73.954 235.075 73.4033C235.049 64.7024 235.024 56.0014 234.944 47.1716C230.518 46.9921 226.148 46.9412 221.777 46.8903C221.789 45.8974 221.777 44.801 221.777 43.6442C240.151 43.5033 258.56 43.6303 276.87 43.6303C276.87 44.9137 276.87 45.9004 276.718 46.9134C272.363 46.9719 268.098 46.8473 263.779 46.9501C263.645 56.4063 263.688 65.9478 263.67 75.3329Z" fill="#2D2C2D"></path><path d="M320.076 75.3193C318.937 75.3322 317.799 75.3451 316.523 75.199C316.398 65.8879 316.41 56.7358 316.465 47.554C316.568 47.4178 316.538 47.3358 316.405 47.1272C316.4 45.8745 316.409 44.7725 316.569 43.653C322.349 43.6319 327.979 43.6385 333.608 43.6104C334.178 43.6074 334.79 43.6302 335.288 43.6302C337.113 43.7955 338.993 43.9442 340.545 44.794C344.255 46.8245 345.495 51.2176 344.066 55.5832C342.989 58.8724 340.447 60.3763 337.221 61.4175C338.56 63.7884 339.843 66.0687 341.133 68.3444C342.186 70.2004 343.25 72.0497 344.307 73.9033C344.826 74.8136 344.69 75.3028 343.509 75.3821C340.562 75.5801 340.288 75.3633 338.864 72.7184C336.903 69.0739 334.807 65.5015 332.667 61.6961C332.35 61.3811 332.133 61.1696 331.916 61.1699C328.065 61.1745 324.214 61.2046 320.244 61.2965C320.109 66.0155 320.092 70.6674 320.076 75.3193ZM320.132 47.1596C320.096 50.264 320.05 53.3687 320.04 56.473C320.039 56.8032 320.249 57.1344 320.665 57.5297C325.426 57.5235 330.187 57.5175 335.201 57.4891C335.929 57.2567 336.764 57.1767 337.36 56.7576C338.288 56.1045 339.435 55.3727 339.818 54.4095C341.241 50.8332 338.907 47.5685 334.772 46.9914C329.971 47.0016 325.169 47.0115 320.132 47.1596Z" fill="#2F2D2E"></path><path d="M289.142 76.035C287.939 75.5528 286.736 75.0718 285.534 74.5879C284.94 74.3483 284.348 74.1034 283.607 73.7048C281.596 71.4105 279.732 69.272 277.868 67.1334C274.974 59.869 275.98 48.9469 284.921 44.3518C285.492 44.134 285.876 44.0154 286.333 43.8557C286.588 43.6157 286.77 43.4164 287.105 43.2465C288.072 43.1669 288.885 43.0449 289.703 42.952C291.716 42.7236 293.731 42.5088 295.746 42.2883C296.289 42.2883 297.265 42.3881 297.783 42.6387C300.272 43.1345 301.678 44.2365 303.789 46.5208C304.473 47.2615 305.067 47.7953 305.723 48.4227C306.441 48.9558 307.097 49.3958 307.811 49.9715C307.959 50.8227 308.544 51.1175 308.655 51.8936C308.724 52.0311 308.302 52.4952 308.456 52.5368C308.519 52.5702 308.655 52.6102 308.655 52.7246C309.233 53.7115 309.233 53.8768 309.399 54.8684C309.27 57.8792 309.597 61.0487 308.981 63.957C307.924 68.9421 304.866 72.6213 300.09 74.7089C299.288 75.0596 298.41 75.2378 297.381 75.5693C296.849 75.6661 296.501 75.6893 296.022 75.7048C295.63 75.7388 295.37 75.7808 294.961 75.7888C292.921 75.8483 291.032 75.9418 289.142 76.035ZM302.409 50.9208C302.2 50.8128 301.992 50.7043 301.678 50.3969C299.51 48.19 297.06 46.5694 293.534 46.6024C291.094 46.0597 288.871 46.7161 286.758 47.8647C280.532 51.2504 279.323 59.716 281.44 64.8343C282.199 66.6684 283.089 68.5395 285.259 69.5714C286.946 71.389 289.034 72.0035 291.579 71.8558C292.365 71.9893 293.188 72.3413 293.932 72.2183C297.04 71.7047 299.715 70.7062 301.875 67.9611C305.268 63.65 305.957 59.1686 304.313 54.1607C304.037 53.3235 303.331 52.6274 302.826 51.6315C302.7 51.457 302.574 51.2824 302.409 50.9208Z" fill="#312E2C"></path><path d="M369.136 66.8015C367.888 69.3701 366.687 71.9628 365.351 74.4841C365.114 74.9306 364.34 75.243 363.77 75.3312C362.867 75.4707 361.928 75.3686 360.67 75.3686C361.543 73.3593 362.223 71.6002 363.056 69.9168C365.886 64.1979 368.785 58.5131 371.628 52.8008C372.967 50.1123 374.283 47.4108 375.518 44.6743C376.035 43.5277 376.931 43.614 377.865 43.6461C378.748 43.6765 379.662 43.3479 380.249 44.5408C385.14 54.4852 390.093 64.3992 395.022 74.3251C395.115 74.5131 395.135 74.7379 395.186 74.9379C392.861 76.0101 390.991 75.4968 389.855 73.3731C388.745 71.2994 387.754 69.1628 386.658 66.8068C380.937 66.5225 375.269 66.4825 369.601 66.4634C369.446 66.4627 369.291 66.6838 369.136 66.8015ZM384.165 62.8083C382.064 58.5944 380.132 53.7108 377.884 49.203C376.951 51.0989 376.168 52.7575 375.326 54.386C373.967 57.0168 372.792 59.8263 371.628 62.8034C371.8 63.0658 371.579 62.8017 371.754 62.8034C375.891 62.8434 380.028 62.8335 384.165 62.8083C384.241 62.808 384.146 63.1832 384.165 62.8083Z" fill="#312F30"></path><path d="M186.879 61.8327C184.175 56.1835 181.51 50.6524 178.861 45.114C178.678 44.7326 178.611 44.2963 178.459 43.782C179.758 43.6593 180.94 43.4604 182.116 43.4911C182.462 43.5 182.903 44.1049 183.11 44.529C186.748 51.9798 190.354 59.4462 193.975 66.905C194.161 67.2874 194.423 67.6332 194.742 68.1442C195.051 67.7399 195.318 67.4858 195.471 67.1764C198.273 61.5312 201.071 55.8837 203.848 50.2264C204.714 48.4626 205.561 46.6867 206.329 44.8793C206.728 43.9403 207.266 43.5185 208.319 43.6167C209.324 43.7106 210.345 43.6372 211.527 43.6372C206.36 54.2585 201.284 64.6914 196.184 75.1723C193.596 75.4694 193.579 75.478 192.435 73.1712C190.584 69.4369 188.758 65.69 186.879 61.8327Z" fill="#303030"></path><path d="M219.837 75.3226C218.592 75.3425 217.347 75.3626 215.99 75.2198C215.875 70.8889 215.879 66.7205 215.866 62.5522C215.846 56.1375 215.814 49.7232 215.787 43.3086C217.029 43.3099 218.271 43.3109 219.657 43.4722C219.812 54.1957 219.825 64.7591 219.837 75.3226Z" fill="#312F30"></path><path d="M355.533 75.3614C354.371 75.3614 353.044 75.3614 351.882 75.3614C351.732 64.6353 351.85 53.9062 351.83 43.3417C352.976 43.3378 354.205 43.3417 355.533 43.3417C355.533 44.2913 355.551 45.1818 355.549 45.9496C355.523 55.6531 355.558 65.6576 355.533 75.3614Z" fill="#2D2C2D"></path><path d="M295.767 42.1792C293.732 42.5087 291.717 42.7236 289.703 42.952C288.886 43.0449 288.072 43.1668 287.117 43.1153C288.695 38.9899 290.413 35.0245 292.233 31.0077C292.488 30.5469 292.64 30.1376 292.796 29.7341C292.801 29.7397 292.787 29.7403 292.872 29.6819C293.009 29.4307 293.061 29.238 293.134 28.9141C293.257 28.42 293.36 28.057 293.462 27.6941C293.323 27.357 293.183 27.0199 293.181 27.0142C293.974 26.3118 294.611 25.7483 295.436 25.2111C296 25.4217 296.375 25.6062 296.75 25.7907C296.745 26.0673 296.741 26.3438 296.76 26.7869C296.782 26.9534 296.747 27.1081 296.682 27.1053C296.617 27.1026 296.487 27.1122 296.401 27.164C296.253 27.4007 296.192 27.5857 296.116 27.891C296.247 28.5714 296.419 29.1268 296.523 29.6945C296.557 29.8773 296.414 30.0925 296.352 30.2928C296.611 30.1771 296.98 30.1318 297.109 29.9324C297.476 29.3658 297.745 28.7363 298.052 28.1316C298.361 27.812 298.669 27.4925 299.076 27.2503C299.214 27.4091 299.256 27.4904 299.298 27.5717C299.341 27.4082 299.386 27.2448 299.429 27.0813C299.429 27.0813 299.44 27.101 299.53 27.1035C299.667 26.9835 299.715 26.8609 299.762 26.7383C299.762 26.7383 299.764 26.7646 299.848 26.7411C300.091 26.5966 300.25 26.4756 300.417 26.4729C300.532 26.8717 300.639 27.1523 300.746 27.4329C300.429 28.6625 300.112 29.892 299.665 31.2476C298.967 31.7179 298.168 31.9298 297.879 32.4326C297.182 33.6452 297.121 35.201 295.859 36.1275C295.737 36.2167 295.599 36.4101 295.613 36.5397C295.775 38.0419 295.964 39.5412 296.147 41.0415C296.027 41.3843 295.907 41.7274 295.767 42.1792Z" fill="#498527"></path><path d="M277.857 67.26C279.731 69.272 281.595 71.4105 283.513 73.6532C283.217 75.1607 282.89 76.5701 282.511 77.9659C282.055 79.648 281.574 81.3242 281.068 82.992C280.711 84.1687 280.307 85.3319 279.893 86.4897C279.79 86.7756 279.564 87.0179 279.395 87.2803C279.218 87.2757 279.041 87.2708 278.864 87.2658C278.842 86.6461 278.81 86.026 278.8 85.4059C278.788 84.7055 278.797 84.0051 278.797 83.2921C276.482 83.5543 276.344 83.3202 276.194 81.0584C275.907 76.7192 277.042 72.5452 277.516 68.2959C277.55 67.9845 277.734 67.6897 277.857 67.26Z" fill="#498527"></path><path d="M295.109 75.8227C295.369 75.7808 295.629 75.7388 296.051 75.8042C295.864 76.8573 295.549 77.8172 295.157 78.7456C293.618 82.3927 291.989 86.0038 290.54 89.6853C290.089 90.8296 289.611 91.7121 288.507 92.0281C287.964 91.5838 287.555 91.1528 287.063 90.8636C285.165 89.7487 285.12 89.6016 286.358 87.6832C286.442 87.5527 286.448 87.3712 286.489 87.2135C286.489 87.2135 286.499 87.1012 286.569 86.9934C286.704 86.7822 286.768 86.6787 286.833 86.5756C286.833 86.5756 286.845 86.457 286.946 86.3614C287.296 85.04 287.546 83.8144 287.796 82.5887C287.809 82.4631 287.821 82.3375 287.906 82.0486C288.036 81.6788 288.094 81.4722 288.153 81.2656C288.157 81.1446 288.162 81.0237 288.278 80.7665C288.529 80.0754 288.667 79.5204 288.806 78.9651C288.813 78.8425 288.819 78.7199 288.932 78.462C289.617 76.1096 291.343 76.2756 293.083 76.3106C293.755 76.3238 294.433 75.9953 295.109 75.8227Z" fill="#C0281F"></path><path d="M286.363 87.2291C286.449 87.3713 286.444 87.5527 286.36 87.6833C285.122 89.6017 285.166 89.7488 287.065 90.8637C287.557 91.1529 287.966 91.5839 288.509 92.0281C289.613 91.7122 290.091 90.8296 290.541 89.6853C291.991 86.0039 293.619 82.3928 295.158 78.7457C295.55 77.8172 295.866 76.8574 296.186 75.8122C296.502 75.6893 296.849 75.6661 297.326 75.6688C295.189 79.886 292.579 84.0111 291.631 88.6795C291.073 91.4286 288.412 92.719 288.067 95.383C288.023 95.7232 287.419 95.9915 287.074 96.293C286.892 96.2365 286.71 96.18 286.528 96.1234C286.579 95.5612 286.553 94.9788 286.696 94.4407C287.211 92.5054 287.104 92.3259 285.09 92.1475C284.501 89.6728 284.867 88.1051 286.363 87.2291Z" fill="#A5413B"></path><path d="M308.655 52.6101C308.655 52.6101 308.519 52.5701 308.431 52.4805C308.294 52.3182 308.227 52.2726 308.142 52.2541C308.05 51.5385 307.959 50.8226 307.807 49.8551C307.964 49.1547 308.183 48.7055 308.499 48.2534C308.661 48.2425 308.726 48.2348 308.892 48.2018C309.022 47.9803 309.051 47.784 309.07 47.5893C309.06 47.5913 309.063 47.6108 309.172 47.6353C309.353 47.6491 309.427 47.6382 309.548 47.6068C309.597 47.586 309.699 47.6078 309.768 47.6184C309.915 47.4588 309.994 47.2885 310.048 47.0608C310.009 46.9216 310.004 46.839 310.049 46.6562C310.186 46.3753 310.28 46.1941 310.375 46.0127C311.296 45.2363 312.218 44.4602 313.233 43.773C313.328 44.0242 313.328 44.1862 313.329 44.3478C313.454 44.1009 313.579 43.854 313.704 43.6071C313.704 43.6071 313.711 43.6279 313.791 43.6428C314.016 43.5539 314.161 43.4497 314.307 43.3459C313.841 44.9993 313.375 46.6529 312.7 48.4107C311.165 48.9967 310.144 49.757 309.665 51.1743C309.485 51.7054 309 52.1345 308.655 52.6101Z" fill="#C0281F"></path><path d="M296.255 40.986C295.963 39.5413 295.774 38.042 295.612 36.5397C295.598 36.4101 295.736 36.2168 295.858 36.1275C297.12 35.201 297.182 33.6452 297.878 32.4327C298.167 31.9298 298.967 31.7179 299.664 31.3691C299.963 33.197 299.444 34.8163 298.505 36.4028C297.658 37.8337 297.067 39.4153 296.255 40.986Z" fill="#57833A"></path><path d="M308.402 48.2567C308.183 48.7055 307.964 49.1547 307.75 49.7199C307.097 49.3957 306.441 48.9557 305.75 48.2887C306.204 46.9355 306.707 45.816 307.173 44.6806C307.493 43.9002 307.76 43.098 308.051 42.3054C308.051 42.3054 308.07 42.3054 308.168 42.3233C308.419 42.4466 308.572 42.5513 308.724 42.6565C308.723 42.3077 308.721 41.9587 308.72 41.61C308.72 41.61 308.721 41.6374 308.848 41.6384C309.068 41.6447 309.162 41.6496 309.256 41.6546C309.256 41.6546 309.235 41.645 309.281 41.763C309.607 42.1739 309.887 42.4664 310.138 42.8419C310.003 43.1337 309.897 43.3426 309.779 43.6669C309.898 43.9564 310.03 44.13 310.121 44.4238C310.021 44.7884 309.96 45.033 309.797 45.3129C309.264 46.3178 308.833 47.2872 308.402 48.2567Z" fill="#C0251C"></path><path d="M292.79 29.7284C292.638 30.1376 292.487 30.5469 292.245 30.8832C292.12 30.5845 292.083 30.3588 291.975 29.6798C290.979 31.8986 290.1 33.6812 289.372 35.5236C288.279 38.2925 287.292 41.1033 286.26 43.8963C285.875 44.0153 285.491 44.1339 284.986 44.2556C285.155 43.1351 285.339 41.9709 285.757 40.897C286.524 38.9248 287.327 36.9525 288.306 35.079C289.381 33.0231 290.671 31.079 292.01 29.1647C292.365 29.4049 292.578 29.5667 292.79 29.7284Z" fill="#57833A"></path><path d="M308.654 52.7245C309 52.1345 309.485 51.7055 309.665 51.1743C310.143 49.757 311.164 48.9968 312.61 48.4785C313.53 49.6883 312.582 50.5473 312.006 51.4447C311.267 52.5953 310.43 53.6837 309.546 54.871C308.362 54.554 308.406 53.735 308.654 52.7245Z" fill="#A5413B"></path><path d="M307.926 42.2919C307.759 43.098 307.492 43.9002 307.172 44.6806C306.706 45.816 306.203 46.9355 305.688 48.1958C305.066 47.7952 304.472 47.2614 303.84 46.6222C304.669 45.4901 305.513 44.4423 306.415 43.4464C306.816 43.0028 307.335 42.6647 307.926 42.2919Z" fill="#A5413B"></path><path d="M296.884 25.757C296.375 25.6063 296.001 25.4218 295.533 25.1749C295.977 24.0046 296.513 22.8968 297.05 21.7891C297.278 21.8592 297.506 21.9293 297.734 21.9995C297.495 23.2407 297.257 24.4819 296.884 25.757Z" fill="#57833A"></path><path d="M294.961 75.7887C294.435 75.9953 293.756 76.3238 293.084 76.3106C291.345 76.2756 289.618 76.1096 288.926 78.3702C288.937 77.6879 289.063 76.9624 289.165 76.1358C291.032 75.9417 292.922 75.8482 294.961 75.7887Z" fill="#A5413B"></path><path d="M287.676 82.594C287.548 83.8143 287.298 85.0399 286.941 86.3019C287.075 85.0922 287.315 83.8457 287.676 82.594Z" fill="#A5413B"></path><path d="M308.5 48.2534C308.834 47.2872 309.265 46.3178 309.918 45.3589C310.231 45.5132 310.321 45.658 310.412 45.8025C310.412 45.8025 310.446 45.9135 310.411 45.9631C310.281 46.1941 310.187 46.3753 309.969 46.6575C309.693 46.9071 309.539 47.0555 309.286 47.2244C309.146 47.3669 309.105 47.4888 309.064 47.6108C309.064 47.6108 309.061 47.5913 308.982 47.6346C308.865 47.861 308.828 48.0441 308.792 48.2272C308.727 48.2349 308.662 48.2425 308.5 48.2534Z" fill="#A5413B"></path><path d="M310.166 42.7593C309.886 42.4665 309.606 42.174 309.291 41.7625C309.86 41.4838 310.464 41.3238 311.083 41.3519C310.967 41.7701 310.835 41.9998 310.627 42.2877C310.423 42.4833 310.294 42.6215 310.166 42.7593Z" fill="#A5413B"></path><path d="M288.708 79.0164C288.668 79.5204 288.53 80.0754 288.273 80.676C288.307 80.1699 288.458 79.6186 288.708 79.0164Z" fill="#A5413B"></path><path d="M300.416 26.1236C300.519 26.0682 300.622 26.0128 300.813 25.9473C300.865 26.3495 300.83 26.7618 300.769 27.3035C300.638 27.1523 300.531 26.8717 300.418 26.4152C300.411 26.2392 300.416 26.1236 300.416 26.1236Z" fill="#57833A"></path><path d="M288.062 81.2964C288.095 81.4722 288.037 81.6788 287.894 81.9545C287.862 81.7912 287.916 81.5592 288.062 81.2964Z" fill="#A5413B"></path><path d="M286.737 86.579C286.77 86.6788 286.705 86.7823 286.564 86.9373C286.424 86.9184 286.36 86.8474 286.297 86.7766C286.411 86.7119 286.526 86.6471 286.737 86.579Z" fill="#A5413B"></path><path d="M316.465 47.554C316.421 47.5838 316.398 47.4311 316.409 47.3547C316.537 47.3359 316.567 47.4179 316.465 47.554Z" fill="#2D2C2D"></path><path d="M293.667 46.619C291.763 51.5726 289.667 56.4863 287.718 61.4572C286.738 63.9557 286.026 66.5583 285.182 69.2359C283.089 68.5395 282.199 66.6684 281.44 64.8343C279.323 59.716 280.532 51.2504 286.758 47.8647C288.871 46.7161 291.095 46.0597 293.667 46.619Z" fill="#448421"></path><path d="M291.518 71.7411C292.238 69.8841 292.995 68.1303 293.819 66.4076C294.03 65.9663 294.451 65.6239 294.943 65.1023C296.338 62.7033 297.566 60.4379 298.786 58.1727C298.777 58.1727 298.784 58.1879 298.895 58.1645C299.046 57.9311 299.086 57.7209 299.117 57.511C299.109 57.511 299.115 57.5269 299.232 57.509C299.385 57.2773 299.421 57.0631 299.449 56.8496C299.44 56.8503 299.446 56.8665 299.564 56.884C300.729 55.2231 301.776 53.5446 302.824 51.8658C303.331 52.6274 304.038 53.3235 304.313 54.1607C305.958 59.1686 305.268 63.65 301.876 67.9611C299.716 70.7062 297.04 71.7047 293.932 72.2184C293.189 72.3413 292.366 71.9893 291.518 71.7411Z" fill="#C0251C"></path><path d="M295.527 63.1551C296.022 61.0053 297.115 59.1742 298.352 57.3605C299.07 56.3068 299.225 54.8892 299.8 53.7158C300.308 52.6772 301.045 51.7494 301.732 50.6844C301.991 50.7043 302.2 50.8127 302.379 51.1254C301.381 53.1753 300.413 55.0207 299.445 56.8664C299.445 56.8664 299.44 56.8502 299.348 56.8879C299.208 57.1259 299.161 57.3262 299.114 57.5268C299.114 57.5268 299.108 57.5109 299.008 57.538C298.866 57.7724 298.825 57.9803 298.783 58.1879C298.783 58.1879 298.777 58.1727 298.671 58.1965C298.11 59.0363 297.681 59.869 297.191 60.6635C296.667 61.5127 296.084 62.3261 295.527 63.1551Z" fill="#A5413B"></path><path d="M308.162 52.3147C308.228 52.2727 308.295 52.3183 308.369 52.4476C308.302 52.4952 308.231 52.4522 308.162 52.3147Z" fill="#A5413B"></path><path d="M292.871 29.6819C292.845 29.5523 292.903 29.3641 293.037 29.1107C293.061 29.2381 293.009 29.4307 292.871 29.6819Z" fill="#57833A"></path><path d="M296.401 27.1639C296.422 27.2943 296.358 27.4765 296.213 27.7146C296.193 27.5856 296.254 27.4006 296.401 27.1639Z" fill="#57833A"></path><path d="M309.779 43.6669C310.04 43.4795 310.288 43.4075 310.641 43.3182C310.75 43.4663 310.757 43.6319 310.724 43.9231C310.556 44.1142 310.428 44.1793 310.23 44.2741C310.03 44.13 309.898 43.9565 309.779 43.6669Z" fill="#A5413B"></path><path d="M310.846 43.3229C310.726 43.2558 310.721 43.1956 310.754 43.0538C310.866 42.9722 310.94 42.9722 311.125 42.9722C311.144 43.0918 311.052 43.2108 310.846 43.3229Z" fill="#A5413B"></path></svg>