<svg width="402" height="118" xmlns="http://www.w3.org/2000/svg" fill="none">

 <g>
  <title>Layer 1</title>
  <g stroke="null" id="svg_37">
   <path stroke="null" id="svg_2" fill="#2D2C2D" d="m166.95105,82.95942c-1.678,0.01897 -3.356,0.0375 -5.23988,-0.18177c-0.21324,-12.78911 -0.20883,-25.34057 -0.24707,-37.89143c-0.00294,-0.91135 0.01029,-1.74462 0,-2.71671l0.01029,-0.97224c0,0 -1.17798,0.02191 -1.49123,0.02132c-9.24737,-0.01015 -18.49622,-0.01647 -27.74359,0.01324c-1.46181,0 -1.46181,0 -1.46181,0.71738c-0.04853,12.92279 -0.0353,25.62249 -0.09706,38.32174c-0.00441,0.90503 0,1.75815 0,2.71142c-1.51182,0.01544 -4.10602,0.01897 -5.78255,0c-0.03235,-0.95327 0.00294,-2.0508 0,-2.86069c-0.03824,-12.79588 -0.075,-25.5919 -0.19265,-38.57734c-6.50904,-0.26398 -12.93573,-0.33884 -19.36389,-0.41369c0.01765,-1.4602 0,-3.0726 0,-4.77384c27.02151,-0.20721 54.09448,-0.02044 81.02187,-0.02044c0,1.88742 0,3.3385 -0.22354,4.82825c-6.40463,0.08603 -12.6769,-0.09721 -19.02859,0.05397c-0.19707,13.90665 -0.13383,27.93874 -0.1603,41.74083z"/>
   <path stroke="null" id="svg_3" fill="#2F2D2E" d="m249.90387,82.93942c-1.67506,0.01897 -3.34864,0.03794 -5.22518,-0.17692c-0.18383,-13.69326 -0.16618,-27.15269 -0.0853,-40.65579c0.15148,-0.2003 0.10736,-0.32089 -0.08824,-0.62767c-0.00735,-1.84227 0.00588,-3.46291 0.24118,-5.10929c8.50029,-0.03103 16.77998,-0.02132 25.0582,-0.06265c0.83826,-0.00441 1.73829,0.02912 2.47067,0.02912c2.68391,0.2431 5.44871,0.46178 7.73114,1.71153c5.45607,2.98613 7.27966,9.44679 5.17812,15.86701c-1.58388,4.83722 -5.32224,7.04892 -10.06652,8.58014c1.96918,3.48674 3.85601,6.84023 5.75314,10.18696c1.54858,2.7295 3.11334,5.44916 4.66781,8.17513c0.76326,1.33872 0.56325,2.05816 -1.17357,2.17478c-4.33397,0.29119 -4.73693,-0.02765 -6.83111,-3.91734c-2.88392,-5.35974 -5.96638,-10.61345 -9.11354,-16.20981c-0.46619,-0.46325 -0.78532,-0.77429 -1.10445,-0.77385c-5.66343,0.00676 -11.32686,0.05103 -17.16529,0.18618c-0.19854,6.93994 -0.22354,13.7812 -0.24707,20.62246zm0.08236,-41.41273c-0.05294,4.56545 -0.12059,9.13134 -0.1353,13.69664c-0.00147,0.4856 0.30736,0.97268 0.91915,1.55402c7.00171,-0.00912 14.00342,-0.01794 21.3772,-0.05971c1.07062,-0.34178 2.29861,-0.45943 3.17511,-1.07577c1.36475,-0.96047 3.05157,-2.03669 3.61483,-3.45321c2.09272,-5.25944 -1.33975,-10.06064 -7.42084,-10.90934c-7.06053,0.015 -14.12254,0.02956 -21.53014,0.24736z"/>
   <path stroke="null" id="svg_4" fill="#312E2C" d="m204.41115,83.99195c-1.76918,-0.70914 -3.53836,-1.41652 -5.30606,-2.12816c-0.87356,-0.35236 -1.74418,-0.71252 -2.83392,-1.29872c-2.95745,-3.37409 -5.69872,-6.51904 -8.43999,-9.66415c-4.25603,-10.6833 -2.77656,-26.74576 10.37241,-33.50349c0.83973,-0.3203 1.40446,-0.49472 2.07654,-0.72958c0.37501,-0.35295 0.64267,-0.64605 1.13533,-0.89591c1.42211,-0.11706 2.61774,-0.29648 3.82072,-0.4331c2.96039,-0.33589 5.92373,-0.65179 8.88707,-0.97606c0.79856,0 2.2339,0.14677 2.99569,0.51531c3.66042,0.72914 5.72814,2.34979 8.83265,5.70916c1.00592,1.0893 1.87948,1.87433 2.84421,2.79701c1.05592,0.784 2.02066,1.43108 3.07069,2.27772c0.21765,1.25181 1.07798,1.68535 1.24122,2.82671c0.10147,0.20221 -0.51914,0.88474 -0.29266,0.94591c0.09265,0.04912 0.29266,0.10794 0.29266,0.27619c0.85003,1.45137 0.85003,1.69447 1.09415,3.15275c-0.18971,4.4278 0.29119,9.08898 -0.61473,13.36604c-1.55446,7.33128 -6.05168,12.74205 -13.07544,15.81215c-1.17945,0.51575 -2.47067,0.77782 -3.98396,1.26534c-0.78238,0.14236 -1.29416,0.17648 -1.9986,0.19927c-0.57649,0.05 -0.95886,0.11177 -1.56035,0.12353c-3.0001,0.0875 -5.77814,0.22501 -8.55764,0.36207zm19.51096,-36.9339c-0.30736,-0.15883 -0.61326,-0.31839 -1.07504,-0.77047c-3.18834,-3.24555 -6.79141,-5.62887 -11.97688,-5.58034c-3.58836,-0.79812 -6.85759,0.16721 -9.96504,1.85639c-9.15619,4.97914 -10.93419,17.42897 -7.82085,24.95614c1.11621,2.6973 2.42508,5.44901 5.61637,6.96656c2.48097,2.67303 5.55166,3.57674 9.29443,3.35953c1.15592,0.19633 2.36626,0.71399 3.46041,0.53311c4.57074,-0.75532 8.5047,-2.22375 11.68128,-6.2608c4.98988,-6.34007 6.00314,-12.93059 3.58542,-20.29539c-0.4059,-1.23122 -1.44417,-2.25493 -2.18684,-3.71954c-0.1853,-0.25663 -0.3706,-0.5134 -0.61326,-1.04518z"/>
   <path stroke="null" id="svg_5" fill="#312F30" d="m322.05338,70.41281c-1.83536,3.77748 -3.60159,7.5904 -5.56637,11.29832c-0.34854,0.65664 -1.48682,1.11607 -2.32508,1.24578c-1.32799,0.20515 -2.70892,0.055 -4.55898,0.055c1.28387,-2.95495 2.2839,-5.54195 3.50894,-8.01763c4.16191,-8.41043 8.42529,-16.77072 12.60631,-25.17144c1.96918,-3.95381 3.90454,-7.92674 5.72078,-11.95114c0.76032,-1.68623 2.07801,-1.55932 3.45159,-1.51211c1.29857,0.04471 2.64274,-0.43854 3.506,1.31578c7.19289,14.62461 14.47696,29.20452 21.72574,43.80193c0.13677,0.27648 0.16618,0.60708 0.24118,0.90121c-3.41923,1.57682 -6.16933,0.82194 -7.83997,-2.30125c-1.63241,-3.04966 -3.08981,-6.19183 -4.70163,-9.65665c-8.41352,-0.4181 -16.7491,-0.47693 -25.08468,-0.50502c-0.22795,-0.00103 -0.4559,0.32413 -0.68385,0.49722zm22.10222,-5.87255c-3.08981,-6.19712 -5.93108,-13.37913 -9.23708,-20.00847c-1.37211,2.78818 -2.52362,5.22738 -3.76189,7.62232c-1.9986,3.86895 -3.7266,8.00071 -5.43842,12.37895c0.25295,0.3859 -0.07206,-0.0025 0.1853,0c6.08403,0.05883 12.16806,0.04427 18.25209,0.00721c0.11177,-0.00044 -0.02794,0.55134 0,0z"/>
   <path stroke="null" id="svg_6" fill="#303030" d="m54.01928,63.10551c-3.97661,-8.30793 -7.89586,-16.44218 -11.79158,-24.58716c-0.26913,-0.5609 -0.36766,-1.20254 -0.5912,-1.95889c1.91036,-0.18045 3.64865,-0.47296 5.37812,-0.42781c0.50884,0.01309 1.15739,0.90268 1.46181,1.52638c5.35018,10.95743 10.6533,21.9378 15.97848,32.907c0.27354,0.56237 0.65885,1.07092 1.12798,1.82241c0.45443,-0.59458 0.84709,-0.96827 1.0721,-1.42328c4.12073,-8.30205 8.23557,-16.60748 12.31954,-24.92732c1.27357,-2.59391 2.5192,-5.20562 3.64865,-7.86365c0.58678,-1.38093 1.37799,-2.00124 2.92657,-1.85683c1.47799,0.13809 2.97951,0.03015 4.71781,0.03015c-7.59879,15.62009 -15.06375,30.96311 -22.564,46.37672c-3.80601,0.43693 -3.83101,0.44957 -5.51342,-2.94289c-2.72215,-5.4918 -5.40754,-11.00214 -8.17087,-16.67483z"/>
   <path stroke="null" id="svg_7" fill="#312F30" d="m102.48857,82.94427c-1.83094,0.02927 -3.66189,0.05883 -5.65754,-0.15118c-0.16912,-6.36919 -0.16324,-12.49939 -0.18236,-18.62946c-0.02941,-9.4337 -0.07647,-18.86682 -0.11618,-28.30037c1.82653,0.00191 3.65307,0.00338 5.69137,0.2406c0.22795,15.77039 0.24707,31.30533 0.26471,46.84041z"/>
   <path stroke="null" id="svg_8" fill="#2D2C2D" d="m302.04829,83.00133c-1.70888,0 -3.66042,0 -5.3693,0c-0.2206,-15.77421 -0.04706,-31.55284 -0.07647,-47.08939c1.68535,-0.00574 3.49277,0 5.44577,0c0,1.39652 0.02647,2.70612 0.02353,3.83528c-0.03824,14.27034 0.01324,28.98334 -0.02353,43.25412z"/>
   <path stroke="null" id="svg_9" fill="#498527" d="m214.15413,34.20232c-2.99275,0.48458 -5.95608,0.80062 -8.91795,1.13651c-1.20151,0.13662 -2.39861,0.31589 -3.80307,0.24016c2.32067,-6.06697 4.84722,-11.89864 7.52378,-17.8059c0.37501,-0.67767 0.59855,-1.2796 0.82797,-1.873c0.00735,0.00824 -0.01324,0.00912 0.11177,-0.07677c0.20148,-0.36942 0.27795,-0.65282 0.38531,-1.12916c0.18089,-0.72664 0.33236,-1.26048 0.48237,-1.79418c-0.20442,-0.49575 -0.41031,-0.9915 -0.41325,-0.99989c1.16622,-1.03298 2.10301,-1.86168 3.31629,-2.65171c0.82944,0.30972 1.38093,0.58105 1.93242,0.85238c-0.00735,0.40678 -0.01324,0.81341 0.01471,1.46505c0.03235,0.24486 -0.01912,0.47237 -0.11471,0.46825c-0.09559,-0.00397 -0.28677,0.01015 -0.41325,0.08633c-0.21765,0.3481 -0.30736,0.62017 -0.41913,1.06915c0.19265,1.00062 0.4456,1.81741 0.59855,2.6523c0.05,0.26883 -0.1603,0.58531 -0.25148,0.87988c0.3809,-0.17015 0.92356,-0.23677 1.11327,-0.53002c0.53972,-0.83326 0.93533,-1.75903 1.38681,-2.64833c0.45443,-0.47002 0.90738,-0.93988 1.50593,-1.29607c0.20295,0.23354 0.26471,0.3531 0.32648,0.47266c0.06324,-0.24045 0.12942,-0.48075 0.19265,-0.7212c0,0 0.01618,0.02897 0.14853,0.03265c0.20148,-0.17648 0.27207,-0.35678 0.34119,-0.53708c0,0 0.00294,0.03868 0.12647,0.00412c0.35737,-0.21251 0.5912,-0.39045 0.83679,-0.39443c0.16912,0.58649 0.32648,0.99915 0.48384,1.41181c-0.46619,1.8083 -0.93238,3.61645 -1.58976,5.61004c-1.02651,0.69164 -2.20155,1.00327 -2.62656,1.74271c-1.02503,1.7833 -1.11474,4.07131 -2.97069,5.43386c-0.17942,0.13118 -0.38237,0.4156 -0.36178,0.6062c0.23824,2.20919 0.51619,4.41412 0.78532,6.62052c-0.17648,0.50413 -0.35295,1.00871 -0.55884,1.67315z"/>
   <path stroke="null" id="svg_10" fill="#498527" d="m187.815,71.0871c2.75598,2.95892 5.49725,6.10388 8.31793,9.40208c-0.43531,2.21699 -0.91621,4.2897 -1.47358,6.34242c-0.67061,2.47376 -1.37799,4.93884 -2.12213,7.39157c-0.52502,1.7305 -1.11916,3.44115 -1.728,5.14385c-0.15148,0.42046 -0.48384,0.77679 -0.73238,1.16269c-0.2603,-0.00676 -0.52061,-0.01397 -0.78091,-0.02132c-0.03235,-0.91135 -0.07941,-1.8233 -0.09412,-2.73524c-0.01765,-1.03003 -0.00441,-2.06007 -0.00441,-3.10863c-3.40453,0.3856 -3.60748,0.04132 -3.82807,-3.28496c-0.42207,-6.38139 1.2471,-12.51984 1.94418,-18.76902c0.05,-0.45796 0.3206,-0.8915 0.50149,-1.52343z"/>
   <path stroke="null" id="svg_11" fill="#C0281F" d="m213.18645,83.67974c0.38237,-0.06162 0.76473,-0.12339 1.38534,-0.02721c-0.27501,1.54873 -0.73826,2.96039 -1.31475,4.32574c-2.26331,5.36356 -4.65898,10.67419 -6.78994,16.08834c-0.66326,1.68285 -1.36622,2.98069 -2.98981,3.44541c-0.79856,-0.6534 -1.40005,-1.28725 -2.1236,-1.71256c-2.79127,-1.63961 -2.85745,-1.85595 -1.0368,-4.67722c0.12353,-0.19192 0.13236,-0.45884 0.19265,-0.69076c0,0 0.01471,-0.16515 0.11765,-0.32369c0.19854,-0.3106 0.29266,-0.46281 0.38825,-0.61443c0,0 0.01765,-0.17442 0.16618,-0.31501c0.51472,-1.9433 0.88238,-3.74572 1.25004,-5.54828c0.01912,-0.18471 0.03677,-0.36942 0.16177,-0.79429c0.19118,-0.54384 0.27648,-0.84768 0.36325,-1.15151c0.00588,-0.17795 0.01324,-0.35575 0.18383,-0.734c0.36913,-1.01636 0.57208,-1.83256 0.7765,-2.64921c0.01029,-0.1803 0.01912,-0.3606 0.1853,-0.73988c1.00739,-3.45953 3.54571,-3.2154 6.10462,-3.16393c0.98827,0.01941 1.98536,-0.46369 2.97951,-0.71752z"/>
   <path stroke="null" id="svg_12" fill="#A5413B" d="m200.32425,100.45442c0.12647,0.20912 0.11912,0.4759 -0.00441,0.66796c-1.82065,2.82127 -1.75594,3.0376 1.0368,4.67722c0.72355,0.42531 1.32504,1.05915 2.1236,1.71241c1.62358,-0.46457 2.32655,-1.76256 2.98834,-3.44541c2.13243,-5.41401 4.52662,-10.72463 6.78994,-16.08819c0.57649,-1.36549 1.04121,-2.77701 1.51182,-4.31412c0.46472,-0.18074 0.97503,-0.21486 1.67653,-0.21089c-3.14275,6.20198 -6.98112,12.2685 -8.37528,19.13403c-0.82062,4.04293 -4.73398,5.94064 -5.24135,9.85842c-0.06471,0.50031 -0.95297,0.89488 -1.46034,1.33828c-0.26766,-0.08309 -0.53531,-0.16618 -0.80297,-0.24942c0.075,-0.82679 0.03677,-1.68329 0.24707,-2.47464c0.75738,-2.84613 0.60002,-3.11011 -2.36184,-3.37247c-0.86621,-3.63939 -0.32795,-5.94491 1.87212,-7.23319z"/>
   <path stroke="null" id="svg_13" fill="#C0281F" d="m233.10771,49.5424c0,0 -0.20001,-0.05883 -0.32942,-0.19059c-0.20148,-0.23868 -0.30001,-0.30575 -0.42501,-0.33295c-0.1353,-1.05239 -0.26913,-2.10522 -0.49266,-3.52806c0.23089,-1.03003 0.55296,-1.69065 1.01768,-2.35552c0.23824,-0.01603 0.33383,-0.02735 0.57796,-0.07588c0.19118,-0.32575 0.23383,-0.61443 0.26177,-0.90077c-0.01471,0.00294 -0.01029,0.03162 0.15001,0.06765c0.26619,0.02029 0.37501,0.00426 0.55296,-0.04191c0.07206,-0.03059 0.22207,0.00147 0.32354,0.01706c0.21618,-0.23471 0.33236,-0.48516 0.41178,-0.82003c-0.05735,-0.20471 -0.06471,-0.32619 0.00147,-0.59502c0.20148,-0.4131 0.33972,-0.67958 0.47943,-0.94636c1.35446,-1.1418 2.71039,-2.28317 4.20308,-3.29379c0.13971,0.36942 0.13971,0.60767 0.14118,0.84532c0.18383,-0.3631 0.36766,-0.7262 0.55149,-1.0893c0,0 0.01029,0.03059 0.12795,0.0525c0.33089,-0.13074 0.54414,-0.28398 0.75885,-0.43663c-0.68532,2.43155 -1.37063,4.8634 -2.36332,7.44849c-2.25743,0.86179 -3.75895,1.97992 -4.46339,4.06426c-0.26471,0.78106 -0.97797,1.41211 -1.48534,2.11154z"/>
   <path stroke="null" id="svg_14" fill="#57833A" d="m214.8718,32.44755c-0.42943,-2.12463 -0.70738,-4.32956 -0.94562,-6.5389c-0.02059,-0.19059 0.18236,-0.47487 0.36178,-0.6062c1.85595,-1.36255 1.94712,-3.65057 2.97069,-5.43371c0.42501,-0.73958 1.60152,-1.05121 2.62656,-1.56417c0.43972,2.68818 -0.32354,5.06958 -1.70447,7.40275c-1.24563,2.10434 -2.11478,4.4303 -3.30894,6.74023z"/>
   <path stroke="null" id="svg_15" fill="#C0251C" d="m232.73564,43.14012c-0.32207,0.66002 -0.64414,1.32063 -0.95886,2.15184c-0.96033,-0.47678 -1.92507,-1.12386 -2.94128,-2.10478c0.66767,-1.99007 1.4074,-3.63645 2.09272,-5.30621c0.4706,-1.14769 0.86326,-2.32743 1.29122,-3.49306c0,0 0.02794,0 0.17206,0.02632c0.36913,0.18133 0.59414,0.33531 0.81767,0.49002c-0.00147,-0.51296 -0.00441,-1.02621 -0.00588,-1.53902c0,0 0.00147,0.0403 0.18824,0.04177c0.32354,0.00927 0.46178,0.01647 0.60002,0.02382c0,0 -0.03088,-0.01412 0.03677,0.15942c0.47943,0.60429 0.89121,1.03445 1.26034,1.58667c-0.19854,0.42913 -0.35442,0.73635 -0.52796,1.21328c0.17501,0.42575 0.36913,0.68105 0.50296,1.11313c-0.14706,0.53619 -0.23677,0.89591 -0.47649,1.30754c-0.78385,1.47784 -1.4177,2.90348 -2.05154,4.32926z"/>
   <path stroke="null" id="svg_16" fill="#57833A" d="m209.77604,15.8917c-0.22354,0.60179 -0.4456,1.20372 -0.8015,1.69829c-0.18383,-0.43928 -0.23824,-0.7712 -0.39707,-1.76977c-1.46476,3.26305 -2.75745,5.88461 -3.82807,8.59412c-1.60741,4.07205 -3.05893,8.20572 -4.57663,12.31321c-0.5662,0.17501 -1.13092,0.34942 -1.87359,0.5284c0.24854,-1.64785 0.51914,-3.35997 1.13386,-4.93929c1.12798,-2.90039 2.3089,-5.80093 3.74866,-8.55617c1.58094,-3.02348 3.47806,-5.88255 5.44724,-8.6978c0.52208,0.35325 0.83532,0.5912 1.1471,0.829z"/>
   <path stroke="null" id="svg_17" fill="#A5413B" d="m233.10624,49.71064c0.50884,-0.86768 1.2221,-1.49858 1.48682,-2.27978c0.70297,-2.08434 2.20449,-3.20231 4.33103,-3.96455c1.35299,1.77918 -0.04118,3.04246 -0.88827,4.36221c-1.0868,1.69212 -2.31773,3.29276 -3.61777,5.03885c-1.74124,-0.46619 -1.67653,-1.67064 -1.31181,-3.15672z"/>
   <path stroke="null" id="svg_18" fill="#A5413B" d="m232.03562,34.36806c-0.2456,1.18548 -0.63826,2.36523 -1.10886,3.51291c-0.68532,1.66976 -1.42505,3.31614 -2.18243,5.16959c-0.91474,-0.58914 -1.7883,-1.37416 -2.71774,-2.3142c1.21916,-1.66491 2.46038,-3.20584 3.78689,-4.67045c0.58973,-0.65238 1.35299,-1.1496 2.22213,-1.69785z"/>
   <path stroke="null" id="svg_19" fill="#57833A" d="m215.79683,10.05121c-0.74855,-0.22163 -1.29857,-0.49296 -1.98683,-0.85606c0.65296,-1.72109 1.44123,-3.35026 2.23096,-4.97929c0.33531,0.10309 0.67061,0.20618 1.00592,0.30942c-0.35148,1.82536 -0.70149,3.65071 -1.25004,5.52592z"/>
   <path stroke="null" id="svg_20" fill="#A5413B" d="m212.96879,83.62973c-0.77356,0.30383 -1.77212,0.78694 -2.76039,0.76753c-2.55744,-0.05147 -5.09723,-0.2956 -6.11491,3.02893c0.01618,-1.00342 0.20148,-2.07036 0.35148,-3.28599c2.74568,-0.28545 5.52519,-0.42296 8.52382,-0.51046z"/>
   <path stroke="null" id="svg_21" fill="#A5413B" d="m202.25519,93.63787c-0.18824,1.79462 -0.5559,3.59703 -1.08092,5.45298c0.19707,-1.77903 0.55002,-3.61218 1.08092,-5.45298z"/>
   <path stroke="null" id="svg_22" fill="#A5413B" d="m232.87976,43.13527c0.49119,-1.42093 1.12504,-2.84657 2.08536,-4.25676c0.46031,0.22692 0.59267,0.43987 0.7265,0.65238c0,0 0.05,0.16324 -0.00147,0.23618c-0.19118,0.33972 -0.32942,0.6062 -0.65002,1.02121c-0.4059,0.36707 -0.63237,0.58531 -1.00445,0.8337c-0.20589,0.20957 -0.26619,0.38884 -0.32648,0.56825c0,0 -0.00441,-0.02868 -0.12059,0.035c-0.17206,0.33295 -0.22648,0.60223 -0.27942,0.8715c-0.09559,0.01132 -0.19118,0.0225 -0.42943,0.03853z"/>
   <path stroke="null" id="svg_23" fill="#A5413B" d="m235.32985,35.05544c-0.41178,-0.4306 -0.82356,-0.86076 -1.28681,-1.46593c0.83679,-0.40987 1.72506,-0.64517 2.63538,-0.60384c-0.17059,0.61502 -0.36472,0.95283 -0.67061,1.37622c-0.30001,0.28766 -0.48972,0.4909 -0.67796,0.69355z"/>
   <path stroke="null" id="svg_24" fill="#A5413B" d="m203.77289,88.37651c-0.05883,0.7412 -0.26177,1.55741 -0.63973,2.44067c0.05,-0.74429 0.27207,-1.55505 0.63973,-2.44067z"/>
   <path stroke="null" id="svg_25" fill="#57833A" d="m220.99112,10.59034c0.15148,-0.08147 0.30295,-0.16295 0.58384,-0.25927c0.07647,0.59149 0.025,1.19783 -0.06471,1.99448c-0.19265,-0.22236 -0.35001,-0.63502 -0.51619,-1.30637c-0.01029,-0.25883 -0.00294,-0.42884 -0.00294,-0.42884z"/>
   <path stroke="null" id="svg_26" fill="#A5413B" d="m202.82286,91.72957c0.04853,0.25854 -0.03677,0.56237 -0.24707,0.96783c-0.04706,-0.24016 0.03235,-0.58134 0.24707,-0.96783z"/>
   <path stroke="null" id="svg_27" fill="#A5413B" d="m200.87426,99.49836c0.04853,0.14677 -0.04706,0.29898 -0.25442,0.52693c-0.20589,-0.0278 -0.30001,-0.13221 -0.39266,-0.23633c0.16765,-0.09515 0.33678,-0.19045 0.64708,-0.2906z"/>
   <path stroke="null" id="svg_28" fill="#2D2C2D" d="m244.5934,42.10671c-0.06471,0.04383 -0.09853,-0.18074 -0.08236,-0.2931c0.18824,-0.02765 0.23236,0.09294 0.08236,0.2931z"/>
   <path stroke="null" id="svg_29" fill="#448421" d="m211.06579,40.73166c-2.8001,7.28495 -5.88255,14.51123 -8.74883,21.82162c-1.44123,3.67439 -2.48832,7.50187 -3.72954,11.43965c-3.07805,-1.02415 -4.38691,-3.77586 -5.50313,-6.47316c-3.11334,-7.52717 -1.33534,-19.977 7.82085,-24.95614c3.10746,-1.68917 6.37816,-2.6545 10.16064,-1.83197z"/>
   <path stroke="null" id="svg_30" fill="#C0251C" d="m207.90538,77.67718c1.05886,-2.73098 2.17213,-5.31018 3.38394,-7.84365c0.3103,-0.64899 0.92944,-1.15254 1.653,-1.91962c2.05154,-3.52806 3.85748,-6.85964 5.65166,-10.19093c-0.01324,0 -0.00294,0.02235 0.1603,-0.01206c0.22207,-0.34325 0.28089,-0.65238 0.32648,-0.96106c-0.01177,0 -0.00294,0.02338 0.16912,-0.00294c0.22501,-0.34075 0.27795,-0.65576 0.31913,-0.96974c-0.01324,0.00103 -0.00441,0.02485 0.16912,0.05059c1.71329,-2.44258 3.25305,-4.91105 4.79428,-7.37996c0.74561,1.12004 1.78535,2.14375 2.18978,3.37497c2.4192,7.36481 1.40446,13.95533 -3.58395,20.29539c-3.17658,4.03705 -7.11201,5.50548 -11.68275,6.26095c-1.09268,0.18074 -2.30302,-0.33692 -3.55012,-0.70194z"/>
   <path stroke="null" id="svg_31" fill="#A5413B" d="m213.80117,65.05028c0.72797,-3.16158 2.33537,-5.85446 4.15455,-8.52176c1.05592,-1.54961 1.28387,-3.63439 2.12948,-5.36003c0.74708,-1.5274 1.83094,-2.89186 2.84127,-4.45809c0.3809,0.02927 0.68826,0.18868 0.9515,0.64855c-1.4677,3.01466 -2.89127,5.72858 -4.31485,8.44293c0,0 -0.00735,-0.02382 -0.14265,0.03162c-0.20589,0.35001 -0.27501,0.64458 -0.34413,0.93959c0,0 -0.00882,-0.02338 -0.15589,0.01647c-0.20883,0.34472 -0.26913,0.65046 -0.33089,0.95577c0,0 -0.00882,-0.02235 -0.16471,0.01265c-0.82503,1.23504 -1.45593,2.45964 -2.17654,3.62806c-0.77061,1.24887 -1.628,2.44508 -2.44714,3.66424z"/>
   <path stroke="null" id="svg_32" fill="#A5413B" d="m232.38269,49.10797c0.09706,-0.06177 0.19559,0.00529 0.30442,0.19545c-0.09853,0.07 -0.20295,0.00676 -0.30442,-0.19545z"/>
   <path stroke="null" id="svg_33" fill="#57833A" d="m209.89516,15.82331c-0.03824,-0.19059 0.04706,-0.46737 0.24413,-0.84003c0.0353,0.18736 -0.04118,0.4706 -0.24413,0.84003z"/>
   <path stroke="null" id="svg_34" fill="#57833A" d="m215.08651,12.12025c0.03088,0.19177 -0.06324,0.45972 -0.27648,0.80988c-0.02941,-0.18971 0.0603,-0.46178 0.27648,-0.80988z"/>
   <path stroke="null" id="svg_35" fill="#A5413B" d="m234.76071,36.39019c0.38384,-0.2756 0.74855,-0.38148 1.26769,-0.51281c0.1603,0.2178 0.17059,0.46134 0.12206,0.88959c-0.24707,0.28104 -0.43531,0.37678 -0.7265,0.51619c-0.29413,-0.21192 -0.48825,-0.46707 -0.66326,-0.89297z"/>
   <path stroke="null" id="svg_36" fill="#A5413B" d="m236.32988,35.88429c-0.17648,-0.09868 -0.18383,-0.18721 -0.1353,-0.39575c0.16471,-0.12 0.27354,-0.12 0.54561,-0.12c0.02794,0.17589 -0.10736,0.35089 -0.41031,0.51575z"/>
  </g>
 </g>
</svg>